<mxfile host="app.diagrams.net" modified="2023-07-07T07:16:35.992Z" agent="Mozilla/5.0 (Macintosh; Intel Mac OS X 10_15_7) AppleWebKit/537.36 (KHTML, like Gecko) Chrome/111.0.0.0 Safari/537.36" etag="Vd91GaW-u1LIDtH8mqxh" version="21.5.2" type="github">
  <diagram name="第 1 页" id="kWR0HwdJ2AVIR2OB0LP1">
    <mxGraphModel dx="2099" dy="821" grid="1" gridSize="10" guides="1" tooltips="1" connect="1" arrows="1" fold="1" page="1" pageScale="1" pageWidth="827" pageHeight="1169" math="0" shadow="0">
      <root>
        <mxCell id="0" />
        <mxCell id="1" parent="0" />
        <mxCell id="gUCkD3Z5L_mQMOncsRFA-1" value="test" style="shape=umlLifeline;perimeter=lifelinePerimeter;whiteSpace=wrap;html=1;container=1;dropTarget=0;collapsible=0;recursiveResize=0;outlineConnect=0;portConstraint=eastwest;newEdgeStyle={&quot;edgeStyle&quot;:&quot;elbowEdgeStyle&quot;,&quot;elbow&quot;:&quot;vertical&quot;,&quot;curved&quot;:0,&quot;rounded&quot;:0};" vertex="1" parent="1">
          <mxGeometry x="50" width="90" height="1000" as="geometry" />
        </mxCell>
        <mxCell id="gUCkD3Z5L_mQMOncsRFA-2" value="uat" style="shape=umlLifeline;perimeter=lifelinePerimeter;whiteSpace=wrap;html=1;container=1;dropTarget=0;collapsible=0;recursiveResize=0;outlineConnect=0;portConstraint=eastwest;newEdgeStyle={&quot;edgeStyle&quot;:&quot;elbowEdgeStyle&quot;,&quot;elbow&quot;:&quot;vertical&quot;,&quot;curved&quot;:0,&quot;rounded&quot;:0};fillColor=#f8cecc;gradientColor=#ea6b66;strokeColor=#b85450;" vertex="1" parent="1">
          <mxGeometry x="270" width="90" height="1010" as="geometry" />
        </mxCell>
        <mxCell id="gUCkD3Z5L_mQMOncsRFA-3" value="master" style="shape=umlLifeline;perimeter=lifelinePerimeter;whiteSpace=wrap;html=1;container=1;dropTarget=0;collapsible=0;recursiveResize=0;outlineConnect=0;portConstraint=eastwest;newEdgeStyle={&quot;edgeStyle&quot;:&quot;elbowEdgeStyle&quot;,&quot;elbow&quot;:&quot;vertical&quot;,&quot;curved&quot;:0,&quot;rounded&quot;:0};" vertex="1" parent="1">
          <mxGeometry x="510" width="90" height="1010" as="geometry" />
        </mxCell>
        <mxCell id="gUCkD3Z5L_mQMOncsRFA-4" value="" style="ellipse;shape=doubleEllipse;whiteSpace=wrap;html=1;aspect=fixed;fillColor=#b0e3e6;strokeColor=#0e8088;" vertex="1" parent="1">
          <mxGeometry x="75" y="150" width="40" height="40" as="geometry" />
        </mxCell>
        <mxCell id="gUCkD3Z5L_mQMOncsRFA-33" style="rounded=0;orthogonalLoop=1;jettySize=auto;html=1;entryX=0;entryY=0.5;entryDx=0;entryDy=0;dashed=1;" edge="1" parent="1" source="gUCkD3Z5L_mQMOncsRFA-5" target="gUCkD3Z5L_mQMOncsRFA-32">
          <mxGeometry relative="1" as="geometry" />
        </mxCell>
        <mxCell id="gUCkD3Z5L_mQMOncsRFA-37" value="打包&lt;br&gt;1.0.release" style="edgeLabel;html=1;align=center;verticalAlign=middle;resizable=0;points=[];" vertex="1" connectable="0" parent="gUCkD3Z5L_mQMOncsRFA-33">
          <mxGeometry x="0.0337" y="-1" relative="1" as="geometry">
            <mxPoint as="offset" />
          </mxGeometry>
        </mxCell>
        <mxCell id="gUCkD3Z5L_mQMOncsRFA-5" value="" style="ellipse;shape=doubleEllipse;whiteSpace=wrap;html=1;aspect=fixed;fillColor=#fff2cc;strokeColor=#d6b656;" vertex="1" parent="1">
          <mxGeometry x="295" y="260" width="40" height="40" as="geometry" />
        </mxCell>
        <mxCell id="gUCkD3Z5L_mQMOncsRFA-10" style="rounded=0;orthogonalLoop=1;jettySize=auto;html=1;entryX=1;entryY=0.5;entryDx=0;entryDy=0;dashed=1;" edge="1" parent="1" source="gUCkD3Z5L_mQMOncsRFA-6" target="gUCkD3Z5L_mQMOncsRFA-20">
          <mxGeometry relative="1" as="geometry">
            <mxPoint x="-110" y="110" as="targetPoint" />
          </mxGeometry>
        </mxCell>
        <mxCell id="gUCkD3Z5L_mQMOncsRFA-12" style="rounded=0;orthogonalLoop=1;jettySize=auto;html=1;entryX=1;entryY=0.5;entryDx=0;entryDy=0;dashed=1;" edge="1" parent="1" source="gUCkD3Z5L_mQMOncsRFA-6" target="gUCkD3Z5L_mQMOncsRFA-21">
          <mxGeometry relative="1" as="geometry">
            <mxPoint x="-110" y="280" as="targetPoint" />
          </mxGeometry>
        </mxCell>
        <mxCell id="gUCkD3Z5L_mQMOncsRFA-6" value="" style="ellipse;shape=doubleEllipse;whiteSpace=wrap;html=1;aspect=fixed;fillColor=#d5e8d4;strokeColor=#82b366;" vertex="1" parent="1">
          <mxGeometry x="535" y="80" width="40" height="40" as="geometry" />
        </mxCell>
        <mxCell id="gUCkD3Z5L_mQMOncsRFA-8" value="dev" style="shape=umlLifeline;perimeter=lifelinePerimeter;whiteSpace=wrap;html=1;container=1;dropTarget=0;collapsible=0;recursiveResize=0;outlineConnect=0;portConstraint=eastwest;newEdgeStyle={&quot;edgeStyle&quot;:&quot;elbowEdgeStyle&quot;,&quot;elbow&quot;:&quot;vertical&quot;,&quot;curved&quot;:0,&quot;rounded&quot;:0};fillColor=#f5f5f5;gradientColor=#b3b3b3;strokeColor=#666666;" vertex="1" parent="1">
          <mxGeometry x="-175" width="105" height="1000" as="geometry" />
        </mxCell>
        <mxCell id="gUCkD3Z5L_mQMOncsRFA-14" value="" style="ellipse;shape=doubleEllipse;whiteSpace=wrap;html=1;aspect=fixed;fillColor=#b0e3e6;strokeColor=#0e8088;" vertex="1" parent="1">
          <mxGeometry x="75" y="510" width="40" height="40" as="geometry" />
        </mxCell>
        <mxCell id="gUCkD3Z5L_mQMOncsRFA-19" value="local" style="shape=umlLifeline;perimeter=lifelinePerimeter;whiteSpace=wrap;html=1;container=1;dropTarget=0;collapsible=0;recursiveResize=0;outlineConnect=0;portConstraint=eastwest;newEdgeStyle={&quot;edgeStyle&quot;:&quot;elbowEdgeStyle&quot;,&quot;elbow&quot;:&quot;vertical&quot;,&quot;curved&quot;:0,&quot;rounded&quot;:0};" vertex="1" parent="1">
          <mxGeometry x="-380" width="90" height="1000" as="geometry" />
        </mxCell>
        <mxCell id="gUCkD3Z5L_mQMOncsRFA-23" style="rounded=0;orthogonalLoop=1;jettySize=auto;html=1;dashed=1;entryX=0;entryY=0.5;entryDx=0;entryDy=0;" edge="1" parent="1" source="gUCkD3Z5L_mQMOncsRFA-20" target="gUCkD3Z5L_mQMOncsRFA-4">
          <mxGeometry relative="1" as="geometry">
            <mxPoint x="-148.92699712135982" y="173.53712293416982" as="targetPoint" />
          </mxGeometry>
        </mxCell>
        <mxCell id="gUCkD3Z5L_mQMOncsRFA-30" style="rounded=0;orthogonalLoop=1;jettySize=auto;html=1;entryX=0;entryY=0.5;entryDx=0;entryDy=0;dashed=1;" edge="1" parent="1" source="gUCkD3Z5L_mQMOncsRFA-20" target="gUCkD3Z5L_mQMOncsRFA-5">
          <mxGeometry relative="1" as="geometry" />
        </mxCell>
        <mxCell id="gUCkD3Z5L_mQMOncsRFA-20" value="" style="ellipse;shape=doubleEllipse;whiteSpace=wrap;html=1;aspect=fixed;fillColor=#bac8d3;strokeColor=#23445d;" vertex="1" parent="1">
          <mxGeometry x="-355" y="90" width="40" height="40" as="geometry" />
        </mxCell>
        <mxCell id="gUCkD3Z5L_mQMOncsRFA-25" style="rounded=0;orthogonalLoop=1;jettySize=auto;html=1;entryX=0;entryY=0.5;entryDx=0;entryDy=0;dashed=1;" edge="1" parent="1" source="gUCkD3Z5L_mQMOncsRFA-21" target="gUCkD3Z5L_mQMOncsRFA-14">
          <mxGeometry relative="1" as="geometry">
            <mxPoint x="-150" y="560" as="targetPoint" />
          </mxGeometry>
        </mxCell>
        <mxCell id="gUCkD3Z5L_mQMOncsRFA-36" style="rounded=0;orthogonalLoop=1;jettySize=auto;html=1;entryX=0;entryY=0.5;entryDx=0;entryDy=0;dashed=1;" edge="1" parent="1" source="gUCkD3Z5L_mQMOncsRFA-21" target="gUCkD3Z5L_mQMOncsRFA-35">
          <mxGeometry relative="1" as="geometry" />
        </mxCell>
        <mxCell id="gUCkD3Z5L_mQMOncsRFA-21" value="" style="ellipse;shape=doubleEllipse;whiteSpace=wrap;html=1;aspect=fixed;fillColor=#bac8d3;strokeColor=#23445d;" vertex="1" parent="1">
          <mxGeometry x="-355" y="450" width="40" height="40" as="geometry" />
        </mxCell>
        <mxCell id="gUCkD3Z5L_mQMOncsRFA-32" value="" style="ellipse;shape=doubleEllipse;whiteSpace=wrap;html=1;aspect=fixed;fillColor=#d5e8d4;strokeColor=#82b366;" vertex="1" parent="1">
          <mxGeometry x="535" y="310" width="40" height="40" as="geometry" />
        </mxCell>
        <mxCell id="gUCkD3Z5L_mQMOncsRFA-43" style="rounded=0;orthogonalLoop=1;jettySize=auto;html=1;entryX=0;entryY=0.5;entryDx=0;entryDy=0;" edge="1" parent="1" source="gUCkD3Z5L_mQMOncsRFA-35" target="gUCkD3Z5L_mQMOncsRFA-42">
          <mxGeometry relative="1" as="geometry" />
        </mxCell>
        <mxCell id="gUCkD3Z5L_mQMOncsRFA-44" value="打包&lt;br style=&quot;border-color: var(--border-color);&quot;&gt;1.1.release" style="edgeLabel;html=1;align=center;verticalAlign=middle;resizable=0;points=[];" vertex="1" connectable="0" parent="gUCkD3Z5L_mQMOncsRFA-43">
          <mxGeometry x="0.0953" y="-2" relative="1" as="geometry">
            <mxPoint x="1" as="offset" />
          </mxGeometry>
        </mxCell>
        <mxCell id="gUCkD3Z5L_mQMOncsRFA-35" value="" style="ellipse;shape=doubleEllipse;whiteSpace=wrap;html=1;aspect=fixed;fillColor=#fff2cc;strokeColor=#d6b656;" vertex="1" parent="1">
          <mxGeometry x="295" y="705" width="40" height="40" as="geometry" />
        </mxCell>
        <mxCell id="gUCkD3Z5L_mQMOncsRFA-42" value="" style="ellipse;shape=doubleEllipse;whiteSpace=wrap;html=1;aspect=fixed;fillColor=#d5e8d4;strokeColor=#82b366;" vertex="1" parent="1">
          <mxGeometry x="535" y="670" width="40" height="40" as="geometry" />
        </mxCell>
        <mxCell id="gUCkD3Z5L_mQMOncsRFA-49" value="test" style="shape=umlLifeline;perimeter=lifelinePerimeter;whiteSpace=wrap;html=1;container=1;dropTarget=0;collapsible=0;recursiveResize=0;outlineConnect=0;portConstraint=eastwest;newEdgeStyle={&quot;edgeStyle&quot;:&quot;elbowEdgeStyle&quot;,&quot;elbow&quot;:&quot;vertical&quot;,&quot;curved&quot;:0,&quot;rounded&quot;:0};" vertex="1" parent="1">
          <mxGeometry x="1360" y="10" width="90" height="1030" as="geometry" />
        </mxCell>
        <mxCell id="gUCkD3Z5L_mQMOncsRFA-50" value="uat" style="shape=umlLifeline;perimeter=lifelinePerimeter;whiteSpace=wrap;html=1;container=1;dropTarget=0;collapsible=0;recursiveResize=0;outlineConnect=0;portConstraint=eastwest;newEdgeStyle={&quot;edgeStyle&quot;:&quot;elbowEdgeStyle&quot;,&quot;elbow&quot;:&quot;vertical&quot;,&quot;curved&quot;:0,&quot;rounded&quot;:0};fillColor=#f8cecc;gradientColor=#ea6b66;strokeColor=#b85450;" vertex="1" parent="1">
          <mxGeometry x="1580" y="10" width="90" height="1030" as="geometry" />
        </mxCell>
        <mxCell id="gUCkD3Z5L_mQMOncsRFA-51" value="master" style="shape=umlLifeline;perimeter=lifelinePerimeter;whiteSpace=wrap;html=1;container=1;dropTarget=0;collapsible=0;recursiveResize=0;outlineConnect=0;portConstraint=eastwest;newEdgeStyle={&quot;edgeStyle&quot;:&quot;elbowEdgeStyle&quot;,&quot;elbow&quot;:&quot;vertical&quot;,&quot;curved&quot;:0,&quot;rounded&quot;:0};" vertex="1" parent="1">
          <mxGeometry x="1820" y="10" width="90" height="1030" as="geometry" />
        </mxCell>
        <mxCell id="gUCkD3Z5L_mQMOncsRFA-52" value="" style="ellipse;shape=doubleEllipse;whiteSpace=wrap;html=1;aspect=fixed;fillColor=#b0e3e6;strokeColor=#0e8088;" vertex="1" parent="1">
          <mxGeometry x="1385" y="170" width="40" height="40" as="geometry" />
        </mxCell>
        <mxCell id="gUCkD3Z5L_mQMOncsRFA-53" style="rounded=0;orthogonalLoop=1;jettySize=auto;html=1;entryX=0;entryY=0.5;entryDx=0;entryDy=0;dashed=1;" edge="1" parent="1" source="gUCkD3Z5L_mQMOncsRFA-55" target="gUCkD3Z5L_mQMOncsRFA-73">
          <mxGeometry relative="1" as="geometry" />
        </mxCell>
        <mxCell id="gUCkD3Z5L_mQMOncsRFA-54" value="打包&lt;br&gt;1.0.release" style="edgeLabel;html=1;align=center;verticalAlign=middle;resizable=0;points=[];" vertex="1" connectable="0" parent="gUCkD3Z5L_mQMOncsRFA-53">
          <mxGeometry x="0.0337" y="-1" relative="1" as="geometry">
            <mxPoint as="offset" />
          </mxGeometry>
        </mxCell>
        <mxCell id="gUCkD3Z5L_mQMOncsRFA-55" value="" style="ellipse;shape=doubleEllipse;whiteSpace=wrap;html=1;aspect=fixed;fillColor=#fff2cc;strokeColor=#d6b656;" vertex="1" parent="1">
          <mxGeometry x="1605" y="290" width="40" height="40" as="geometry" />
        </mxCell>
        <mxCell id="gUCkD3Z5L_mQMOncsRFA-56" style="rounded=0;orthogonalLoop=1;jettySize=auto;html=1;entryX=1;entryY=0.5;entryDx=0;entryDy=0;dashed=1;" edge="1" parent="1" source="gUCkD3Z5L_mQMOncsRFA-58" target="gUCkD3Z5L_mQMOncsRFA-65">
          <mxGeometry relative="1" as="geometry">
            <mxPoint x="1200" y="120" as="targetPoint" />
          </mxGeometry>
        </mxCell>
        <mxCell id="gUCkD3Z5L_mQMOncsRFA-57" style="rounded=0;orthogonalLoop=1;jettySize=auto;html=1;entryX=1;entryY=0.5;entryDx=0;entryDy=0;dashed=1;" edge="1" parent="1" source="gUCkD3Z5L_mQMOncsRFA-58" target="gUCkD3Z5L_mQMOncsRFA-70">
          <mxGeometry relative="1" as="geometry">
            <mxPoint x="1200" y="290" as="targetPoint" />
          </mxGeometry>
        </mxCell>
        <mxCell id="gUCkD3Z5L_mQMOncsRFA-58" value="" style="ellipse;shape=doubleEllipse;whiteSpace=wrap;html=1;aspect=fixed;fillColor=#d5e8d4;strokeColor=#82b366;" vertex="1" parent="1">
          <mxGeometry x="1845" y="100" width="40" height="40" as="geometry" />
        </mxCell>
        <mxCell id="gUCkD3Z5L_mQMOncsRFA-60" value="" style="ellipse;shape=doubleEllipse;whiteSpace=wrap;html=1;aspect=fixed;fillColor=#b0e3e6;strokeColor=#0e8088;" vertex="1" parent="1">
          <mxGeometry x="1385" y="520" width="40" height="40" as="geometry" />
        </mxCell>
        <mxCell id="gUCkD3Z5L_mQMOncsRFA-61" value="local" style="shape=umlLifeline;perimeter=lifelinePerimeter;whiteSpace=wrap;html=1;container=1;dropTarget=0;collapsible=0;recursiveResize=0;outlineConnect=0;portConstraint=eastwest;newEdgeStyle={&quot;edgeStyle&quot;:&quot;elbowEdgeStyle&quot;,&quot;elbow&quot;:&quot;vertical&quot;,&quot;curved&quot;:0,&quot;rounded&quot;:0};" vertex="1" parent="1">
          <mxGeometry x="1050" y="10" width="90" height="1030" as="geometry" />
        </mxCell>
        <mxCell id="gUCkD3Z5L_mQMOncsRFA-62" style="rounded=0;orthogonalLoop=1;jettySize=auto;html=1;dashed=1;entryX=0;entryY=0.5;entryDx=0;entryDy=0;" edge="1" parent="1" source="gUCkD3Z5L_mQMOncsRFA-65" target="gUCkD3Z5L_mQMOncsRFA-52">
          <mxGeometry relative="1" as="geometry">
            <mxPoint x="1161.0730028786402" y="183.53712293416982" as="targetPoint" />
          </mxGeometry>
        </mxCell>
        <mxCell id="gUCkD3Z5L_mQMOncsRFA-63" value="打包&lt;br style=&quot;border-color: var(--border-color);&quot;&gt;1.0-snapshot" style="edgeLabel;html=1;align=center;verticalAlign=middle;resizable=0;points=[];" vertex="1" connectable="0" parent="gUCkD3Z5L_mQMOncsRFA-62">
          <mxGeometry x="0.1658" y="-1" relative="1" as="geometry">
            <mxPoint as="offset" />
          </mxGeometry>
        </mxCell>
        <mxCell id="gUCkD3Z5L_mQMOncsRFA-64" style="rounded=0;orthogonalLoop=1;jettySize=auto;html=1;entryX=0;entryY=0.5;entryDx=0;entryDy=0;dashed=1;" edge="1" parent="1" source="gUCkD3Z5L_mQMOncsRFA-65" target="gUCkD3Z5L_mQMOncsRFA-55">
          <mxGeometry relative="1" as="geometry" />
        </mxCell>
        <mxCell id="gUCkD3Z5L_mQMOncsRFA-65" value="" style="ellipse;shape=doubleEllipse;whiteSpace=wrap;html=1;aspect=fixed;fillColor=#bac8d3;strokeColor=#23445d;" vertex="1" parent="1">
          <mxGeometry x="1075" y="100" width="40" height="40" as="geometry" />
        </mxCell>
        <mxCell id="gUCkD3Z5L_mQMOncsRFA-66" style="rounded=0;orthogonalLoop=1;jettySize=auto;html=1;entryX=0;entryY=0.5;entryDx=0;entryDy=0;dashed=1;" edge="1" parent="1" source="gUCkD3Z5L_mQMOncsRFA-70" target="gUCkD3Z5L_mQMOncsRFA-60">
          <mxGeometry relative="1" as="geometry">
            <mxPoint x="1160" y="570" as="targetPoint" />
          </mxGeometry>
        </mxCell>
        <mxCell id="gUCkD3Z5L_mQMOncsRFA-67" value="打包&lt;br&gt;1.1-snapshot" style="edgeLabel;html=1;align=center;verticalAlign=middle;resizable=0;points=[];" vertex="1" connectable="0" parent="gUCkD3Z5L_mQMOncsRFA-66">
          <mxGeometry x="0.0587" y="-1" relative="1" as="geometry">
            <mxPoint x="-11" as="offset" />
          </mxGeometry>
        </mxCell>
        <mxCell id="gUCkD3Z5L_mQMOncsRFA-68" style="rounded=0;orthogonalLoop=1;jettySize=auto;html=1;entryX=0;entryY=0.5;entryDx=0;entryDy=0;dashed=1;" edge="1" parent="1" source="gUCkD3Z5L_mQMOncsRFA-70" target="gUCkD3Z5L_mQMOncsRFA-76">
          <mxGeometry relative="1" as="geometry" />
        </mxCell>
        <mxCell id="gUCkD3Z5L_mQMOncsRFA-69" style="rounded=0;orthogonalLoop=1;jettySize=auto;html=1;entryX=0;entryY=0.5;entryDx=0;entryDy=0;strokeColor=#FF3333;dashed=1;" edge="1" parent="1" source="gUCkD3Z5L_mQMOncsRFA-70" target="gUCkD3Z5L_mQMOncsRFA-78">
          <mxGeometry relative="1" as="geometry" />
        </mxCell>
        <mxCell id="gUCkD3Z5L_mQMOncsRFA-82" value="重新打包&lt;br style=&quot;border-color: var(--border-color);&quot;&gt;1.1-snapshot" style="edgeLabel;html=1;align=center;verticalAlign=middle;resizable=0;points=[];" vertex="1" connectable="0" parent="gUCkD3Z5L_mQMOncsRFA-69">
          <mxGeometry x="0.0442" relative="1" as="geometry">
            <mxPoint as="offset" />
          </mxGeometry>
        </mxCell>
        <mxCell id="gUCkD3Z5L_mQMOncsRFA-86" style="rounded=0;orthogonalLoop=1;jettySize=auto;html=1;entryX=0;entryY=0.5;entryDx=0;entryDy=0;dashed=1;strokeColor=#FF3333;" edge="1" parent="1" source="gUCkD3Z5L_mQMOncsRFA-70" target="gUCkD3Z5L_mQMOncsRFA-85">
          <mxGeometry relative="1" as="geometry" />
        </mxCell>
        <mxCell id="gUCkD3Z5L_mQMOncsRFA-70" value="" style="ellipse;shape=doubleEllipse;whiteSpace=wrap;html=1;aspect=fixed;fillColor=#bac8d3;strokeColor=#23445d;" vertex="1" parent="1">
          <mxGeometry x="1075" y="460" width="40" height="40" as="geometry" />
        </mxCell>
        <mxCell id="gUCkD3Z5L_mQMOncsRFA-71" style="rounded=0;orthogonalLoop=1;jettySize=auto;html=1;entryX=1;entryY=0.5;entryDx=0;entryDy=0;dashed=1;fillColor=#f8cecc;gradientColor=#ea6b66;strokeColor=#FF3333;strokeWidth=1;" edge="1" parent="1" source="gUCkD3Z5L_mQMOncsRFA-73" target="gUCkD3Z5L_mQMOncsRFA-70">
          <mxGeometry relative="1" as="geometry" />
        </mxCell>
        <mxCell id="gUCkD3Z5L_mQMOncsRFA-72" value="master有变更" style="edgeLabel;html=1;align=center;verticalAlign=middle;resizable=0;points=[];" vertex="1" connectable="0" parent="gUCkD3Z5L_mQMOncsRFA-71">
          <mxGeometry x="-0.0742" relative="1" as="geometry">
            <mxPoint as="offset" />
          </mxGeometry>
        </mxCell>
        <mxCell id="gUCkD3Z5L_mQMOncsRFA-73" value="" style="ellipse;shape=doubleEllipse;whiteSpace=wrap;html=1;aspect=fixed;fillColor=#d5e8d4;strokeColor=#82b366;" vertex="1" parent="1">
          <mxGeometry x="1845" y="350" width="40" height="40" as="geometry" />
        </mxCell>
        <mxCell id="gUCkD3Z5L_mQMOncsRFA-74" style="rounded=0;orthogonalLoop=1;jettySize=auto;html=1;entryX=0;entryY=0.5;entryDx=0;entryDy=0;dashed=1;" edge="1" parent="1" source="gUCkD3Z5L_mQMOncsRFA-76" target="gUCkD3Z5L_mQMOncsRFA-77">
          <mxGeometry relative="1" as="geometry" />
        </mxCell>
        <mxCell id="gUCkD3Z5L_mQMOncsRFA-75" value="打包&lt;br style=&quot;border-color: var(--border-color);&quot;&gt;1.1.release" style="edgeLabel;html=1;align=center;verticalAlign=middle;resizable=0;points=[];" vertex="1" connectable="0" parent="gUCkD3Z5L_mQMOncsRFA-74">
          <mxGeometry x="0.0953" y="-2" relative="1" as="geometry">
            <mxPoint x="1" as="offset" />
          </mxGeometry>
        </mxCell>
        <mxCell id="gUCkD3Z5L_mQMOncsRFA-76" value="" style="ellipse;shape=doubleEllipse;whiteSpace=wrap;html=1;aspect=fixed;fillColor=#fff2cc;strokeColor=#d6b656;" vertex="1" parent="1">
          <mxGeometry x="1605" y="715" width="40" height="40" as="geometry" />
        </mxCell>
        <mxCell id="gUCkD3Z5L_mQMOncsRFA-77" value="" style="ellipse;shape=doubleEllipse;whiteSpace=wrap;html=1;aspect=fixed;fillColor=#d5e8d4;strokeColor=#82b366;" vertex="1" parent="1">
          <mxGeometry x="1845" y="680" width="40" height="40" as="geometry" />
        </mxCell>
        <mxCell id="gUCkD3Z5L_mQMOncsRFA-78" value="" style="ellipse;shape=doubleEllipse;whiteSpace=wrap;html=1;aspect=fixed;fillColor=#b0e3e6;strokeColor=#0e8088;" vertex="1" parent="1">
          <mxGeometry x="1385" y="710" width="40" height="40" as="geometry" />
        </mxCell>
        <mxCell id="gUCkD3Z5L_mQMOncsRFA-88" style="rounded=0;orthogonalLoop=1;jettySize=auto;html=1;strokeColor=#FF3333;dashed=1;" edge="1" parent="1" source="gUCkD3Z5L_mQMOncsRFA-85" target="gUCkD3Z5L_mQMOncsRFA-87">
          <mxGeometry relative="1" as="geometry" />
        </mxCell>
        <mxCell id="gUCkD3Z5L_mQMOncsRFA-89" value="打包&lt;br style=&quot;border-color: var(--border-color);&quot;&gt;1.2.release" style="edgeLabel;html=1;align=center;verticalAlign=middle;resizable=0;points=[];" vertex="1" connectable="0" parent="gUCkD3Z5L_mQMOncsRFA-88">
          <mxGeometry x="0.1095" y="-2" relative="1" as="geometry">
            <mxPoint as="offset" />
          </mxGeometry>
        </mxCell>
        <mxCell id="gUCkD3Z5L_mQMOncsRFA-85" value="" style="ellipse;shape=doubleEllipse;whiteSpace=wrap;html=1;aspect=fixed;fillColor=#fff2cc;strokeColor=#d6b656;" vertex="1" parent="1">
          <mxGeometry x="1605" y="970" width="40" height="40" as="geometry" />
        </mxCell>
        <mxCell id="gUCkD3Z5L_mQMOncsRFA-87" value="" style="ellipse;shape=doubleEllipse;whiteSpace=wrap;html=1;aspect=fixed;fillColor=#d5e8d4;strokeColor=#82b366;" vertex="1" parent="1">
          <mxGeometry x="1845" y="920" width="40" height="40" as="geometry" />
        </mxCell>
        <mxCell id="gUCkD3Z5L_mQMOncsRFA-90" value="重新打包&lt;br&gt;1.1-snapshot" style="edgeLabel;html=1;align=center;verticalAlign=middle;resizable=0;points=[];" vertex="1" connectable="0" parent="1">
          <mxGeometry x="170.0044192405747" y="525.0022735159426" as="geometry">
            <mxPoint x="-10" y="6" as="offset" />
          </mxGeometry>
        </mxCell>
        <mxCell id="gUCkD3Z5L_mQMOncsRFA-100" value="打包&lt;br&gt;1.0-snapshot" style="edgeLabel;html=1;align=center;verticalAlign=middle;resizable=0;points=[];" vertex="1" connectable="0" parent="1">
          <mxGeometry x="169.99976833215175" y="190.00439219330593" as="geometry">
            <mxPoint x="-8" y="-23" as="offset" />
          </mxGeometry>
        </mxCell>
      </root>
    </mxGraphModel>
  </diagram>
</mxfile>
